<mxfile host="Electron" modified="2023-08-23T08:45:09.730Z" agent="5.0 (Windows NT 10.0; Win64; x64) AppleWebKit/537.36 (KHTML, like Gecko) draw.io/20.3.0 Chrome/104.0.5112.114 Electron/20.1.3 Safari/537.36" etag="A90QQW9s-9mi54RqjLqc" compressed="false" version="20.3.0" type="device">
  <diagram name="PE009A" id="1CP9VX86ncTdAmcYDIcw">
    <mxGraphModel dx="487" dy="482" grid="1" gridSize="2" guides="1" tooltips="1" connect="1" arrows="1" fold="1" page="1" pageScale="1" pageWidth="1169" pageHeight="827" math="0" shadow="0">
      <root>
        <mxCell id="22vkG-h5v2N9dKBLQ-ZE-0" />
        <object label="Symbol" Width="32" Height="16" UoM="mm" id="22vkG-h5v2N9dKBLQ-ZE-138">
          <mxCell style="locked=1;" parent="22vkG-h5v2N9dKBLQ-ZE-0" />
        </object>
        <mxCell id="aVotK5YqHczam_q-kqmK-0" value="" style="rounded=0;whiteSpace=wrap;html=1;strokeColor=#000000;fontSize=9;fontColor=#FF0000;fillColor=none;" parent="22vkG-h5v2N9dKBLQ-ZE-138" vertex="1">
          <mxGeometry x="256" y="256" width="512" height="256" as="geometry" />
        </mxCell>
        <mxCell id="aVotK5YqHczam_q-kqmK-27" value="" style="group" parent="22vkG-h5v2N9dKBLQ-ZE-138" vertex="1" connectable="0">
          <mxGeometry x="256" y="326" width="512" height="48" as="geometry" />
        </mxCell>
        <mxCell id="aVotK5YqHczam_q-kqmK-1" value="" style="endArrow=none;html=1;rounded=0;fontSize=9;fontColor=#FF0000;" parent="aVotK5YqHczam_q-kqmK-27" edge="1">
          <mxGeometry width="50" height="50" relative="1" as="geometry">
            <mxPoint y="48" as="sourcePoint" />
            <mxPoint x="53" as="targetPoint" />
          </mxGeometry>
        </mxCell>
        <mxCell id="aVotK5YqHczam_q-kqmK-2" value="" style="endArrow=none;html=1;rounded=0;fontSize=9;fontColor=#FF0000;" parent="aVotK5YqHczam_q-kqmK-27" edge="1">
          <mxGeometry width="50" height="50" relative="1" as="geometry">
            <mxPoint x="102" y="48" as="sourcePoint" />
            <mxPoint x="53" as="targetPoint" />
          </mxGeometry>
        </mxCell>
        <mxCell id="aVotK5YqHczam_q-kqmK-19" value="" style="endArrow=none;html=1;rounded=0;fontSize=9;fontColor=#FF0000;" parent="aVotK5YqHczam_q-kqmK-27" edge="1">
          <mxGeometry width="50" height="50" relative="1" as="geometry">
            <mxPoint x="102" y="48" as="sourcePoint" />
            <mxPoint x="155" as="targetPoint" />
          </mxGeometry>
        </mxCell>
        <mxCell id="aVotK5YqHczam_q-kqmK-20" value="" style="endArrow=none;html=1;rounded=0;fontSize=9;fontColor=#FF0000;" parent="aVotK5YqHczam_q-kqmK-27" edge="1">
          <mxGeometry width="50" height="50" relative="1" as="geometry">
            <mxPoint x="204" y="48" as="sourcePoint" />
            <mxPoint x="155" as="targetPoint" />
          </mxGeometry>
        </mxCell>
        <mxCell id="aVotK5YqHczam_q-kqmK-21" value="" style="endArrow=none;html=1;rounded=0;fontSize=9;fontColor=#FF0000;" parent="aVotK5YqHczam_q-kqmK-27" edge="1">
          <mxGeometry width="50" height="50" relative="1" as="geometry">
            <mxPoint x="204" y="48" as="sourcePoint" />
            <mxPoint x="257" as="targetPoint" />
          </mxGeometry>
        </mxCell>
        <mxCell id="aVotK5YqHczam_q-kqmK-22" value="" style="endArrow=none;html=1;rounded=0;fontSize=9;fontColor=#FF0000;" parent="aVotK5YqHczam_q-kqmK-27" edge="1">
          <mxGeometry width="50" height="50" relative="1" as="geometry">
            <mxPoint x="306" y="48" as="sourcePoint" />
            <mxPoint x="257" as="targetPoint" />
          </mxGeometry>
        </mxCell>
        <mxCell id="aVotK5YqHczam_q-kqmK-23" value="" style="endArrow=none;html=1;rounded=0;fontSize=9;fontColor=#FF0000;" parent="aVotK5YqHczam_q-kqmK-27" edge="1">
          <mxGeometry width="50" height="50" relative="1" as="geometry">
            <mxPoint x="306" y="48" as="sourcePoint" />
            <mxPoint x="359" as="targetPoint" />
          </mxGeometry>
        </mxCell>
        <mxCell id="aVotK5YqHczam_q-kqmK-24" value="" style="endArrow=none;html=1;rounded=0;fontSize=9;fontColor=#FF0000;" parent="aVotK5YqHczam_q-kqmK-27" edge="1">
          <mxGeometry width="50" height="50" relative="1" as="geometry">
            <mxPoint x="408" y="48" as="sourcePoint" />
            <mxPoint x="359" as="targetPoint" />
          </mxGeometry>
        </mxCell>
        <mxCell id="aVotK5YqHczam_q-kqmK-25" value="" style="endArrow=none;html=1;rounded=0;fontSize=9;fontColor=#FF0000;" parent="aVotK5YqHczam_q-kqmK-27" edge="1">
          <mxGeometry width="50" height="50" relative="1" as="geometry">
            <mxPoint x="408" y="48" as="sourcePoint" />
            <mxPoint x="462" as="targetPoint" />
          </mxGeometry>
        </mxCell>
        <mxCell id="aVotK5YqHczam_q-kqmK-26" value="" style="endArrow=none;html=1;rounded=0;fontSize=9;fontColor=#FF0000;" parent="aVotK5YqHczam_q-kqmK-27" edge="1">
          <mxGeometry width="50" height="50" relative="1" as="geometry">
            <mxPoint x="512" y="48" as="sourcePoint" />
            <mxPoint x="462" as="targetPoint" />
          </mxGeometry>
        </mxCell>
        <mxCell id="aVotK5YqHczam_q-kqmK-28" value="" style="group" parent="22vkG-h5v2N9dKBLQ-ZE-138" vertex="1" connectable="0">
          <mxGeometry x="256" y="345" width="512" height="48" as="geometry" />
        </mxCell>
        <mxCell id="aVotK5YqHczam_q-kqmK-29" value="" style="endArrow=none;html=1;rounded=0;fontSize=9;fontColor=#FF0000;" parent="aVotK5YqHczam_q-kqmK-28" edge="1">
          <mxGeometry width="50" height="50" relative="1" as="geometry">
            <mxPoint y="48" as="sourcePoint" />
            <mxPoint x="53" as="targetPoint" />
          </mxGeometry>
        </mxCell>
        <mxCell id="aVotK5YqHczam_q-kqmK-30" value="" style="endArrow=none;html=1;rounded=0;fontSize=9;fontColor=#FF0000;" parent="aVotK5YqHczam_q-kqmK-28" edge="1">
          <mxGeometry width="50" height="50" relative="1" as="geometry">
            <mxPoint x="102" y="48" as="sourcePoint" />
            <mxPoint x="53" as="targetPoint" />
          </mxGeometry>
        </mxCell>
        <mxCell id="aVotK5YqHczam_q-kqmK-31" value="" style="endArrow=none;html=1;rounded=0;fontSize=9;fontColor=#FF0000;" parent="aVotK5YqHczam_q-kqmK-28" edge="1">
          <mxGeometry width="50" height="50" relative="1" as="geometry">
            <mxPoint x="102" y="48" as="sourcePoint" />
            <mxPoint x="155" as="targetPoint" />
          </mxGeometry>
        </mxCell>
        <mxCell id="aVotK5YqHczam_q-kqmK-32" value="" style="endArrow=none;html=1;rounded=0;fontSize=9;fontColor=#FF0000;" parent="aVotK5YqHczam_q-kqmK-28" edge="1">
          <mxGeometry width="50" height="50" relative="1" as="geometry">
            <mxPoint x="204" y="48" as="sourcePoint" />
            <mxPoint x="155" as="targetPoint" />
          </mxGeometry>
        </mxCell>
        <mxCell id="aVotK5YqHczam_q-kqmK-33" value="" style="endArrow=none;html=1;rounded=0;fontSize=9;fontColor=#FF0000;" parent="aVotK5YqHczam_q-kqmK-28" edge="1">
          <mxGeometry width="50" height="50" relative="1" as="geometry">
            <mxPoint x="204" y="48" as="sourcePoint" />
            <mxPoint x="257" as="targetPoint" />
          </mxGeometry>
        </mxCell>
        <mxCell id="aVotK5YqHczam_q-kqmK-34" value="" style="endArrow=none;html=1;rounded=0;fontSize=9;fontColor=#FF0000;" parent="aVotK5YqHczam_q-kqmK-28" edge="1">
          <mxGeometry width="50" height="50" relative="1" as="geometry">
            <mxPoint x="306" y="48" as="sourcePoint" />
            <mxPoint x="257" as="targetPoint" />
          </mxGeometry>
        </mxCell>
        <mxCell id="aVotK5YqHczam_q-kqmK-35" value="" style="endArrow=none;html=1;rounded=0;fontSize=9;fontColor=#FF0000;" parent="aVotK5YqHczam_q-kqmK-28" edge="1">
          <mxGeometry width="50" height="50" relative="1" as="geometry">
            <mxPoint x="306" y="48" as="sourcePoint" />
            <mxPoint x="359" as="targetPoint" />
          </mxGeometry>
        </mxCell>
        <mxCell id="aVotK5YqHczam_q-kqmK-36" value="" style="endArrow=none;html=1;rounded=0;fontSize=9;fontColor=#FF0000;" parent="aVotK5YqHczam_q-kqmK-28" edge="1">
          <mxGeometry width="50" height="50" relative="1" as="geometry">
            <mxPoint x="408" y="48" as="sourcePoint" />
            <mxPoint x="359" as="targetPoint" />
          </mxGeometry>
        </mxCell>
        <mxCell id="aVotK5YqHczam_q-kqmK-37" value="" style="endArrow=none;html=1;rounded=0;fontSize=9;fontColor=#FF0000;" parent="aVotK5YqHczam_q-kqmK-28" edge="1">
          <mxGeometry width="50" height="50" relative="1" as="geometry">
            <mxPoint x="408" y="48" as="sourcePoint" />
            <mxPoint x="462" as="targetPoint" />
          </mxGeometry>
        </mxCell>
        <mxCell id="aVotK5YqHczam_q-kqmK-38" value="" style="endArrow=none;html=1;rounded=0;fontSize=9;fontColor=#FF0000;" parent="aVotK5YqHczam_q-kqmK-28" edge="1">
          <mxGeometry width="50" height="50" relative="1" as="geometry">
            <mxPoint x="512" y="48" as="sourcePoint" />
            <mxPoint x="462" as="targetPoint" />
          </mxGeometry>
        </mxCell>
        <mxCell id="aVotK5YqHczam_q-kqmK-39" value="" style="group" parent="22vkG-h5v2N9dKBLQ-ZE-138" vertex="1" connectable="0">
          <mxGeometry x="256" y="363" width="512" height="48" as="geometry" />
        </mxCell>
        <mxCell id="aVotK5YqHczam_q-kqmK-40" value="" style="endArrow=none;html=1;rounded=0;fontSize=9;fontColor=#FF0000;" parent="aVotK5YqHczam_q-kqmK-39" edge="1">
          <mxGeometry width="50" height="50" relative="1" as="geometry">
            <mxPoint y="48" as="sourcePoint" />
            <mxPoint x="53" as="targetPoint" />
          </mxGeometry>
        </mxCell>
        <mxCell id="aVotK5YqHczam_q-kqmK-41" value="" style="endArrow=none;html=1;rounded=0;fontSize=9;fontColor=#FF0000;" parent="aVotK5YqHczam_q-kqmK-39" edge="1">
          <mxGeometry width="50" height="50" relative="1" as="geometry">
            <mxPoint x="102" y="48" as="sourcePoint" />
            <mxPoint x="53" as="targetPoint" />
          </mxGeometry>
        </mxCell>
        <mxCell id="aVotK5YqHczam_q-kqmK-42" value="" style="endArrow=none;html=1;rounded=0;fontSize=9;fontColor=#FF0000;" parent="aVotK5YqHczam_q-kqmK-39" edge="1">
          <mxGeometry width="50" height="50" relative="1" as="geometry">
            <mxPoint x="102" y="48" as="sourcePoint" />
            <mxPoint x="155" as="targetPoint" />
          </mxGeometry>
        </mxCell>
        <mxCell id="aVotK5YqHczam_q-kqmK-43" value="" style="endArrow=none;html=1;rounded=0;fontSize=9;fontColor=#FF0000;" parent="aVotK5YqHczam_q-kqmK-39" edge="1">
          <mxGeometry width="50" height="50" relative="1" as="geometry">
            <mxPoint x="204" y="48" as="sourcePoint" />
            <mxPoint x="155" as="targetPoint" />
          </mxGeometry>
        </mxCell>
        <mxCell id="aVotK5YqHczam_q-kqmK-44" value="" style="endArrow=none;html=1;rounded=0;fontSize=9;fontColor=#FF0000;" parent="aVotK5YqHczam_q-kqmK-39" edge="1">
          <mxGeometry width="50" height="50" relative="1" as="geometry">
            <mxPoint x="204" y="48" as="sourcePoint" />
            <mxPoint x="257" as="targetPoint" />
          </mxGeometry>
        </mxCell>
        <mxCell id="aVotK5YqHczam_q-kqmK-45" value="" style="endArrow=none;html=1;rounded=0;fontSize=9;fontColor=#FF0000;" parent="aVotK5YqHczam_q-kqmK-39" edge="1">
          <mxGeometry width="50" height="50" relative="1" as="geometry">
            <mxPoint x="306" y="48" as="sourcePoint" />
            <mxPoint x="257" as="targetPoint" />
          </mxGeometry>
        </mxCell>
        <mxCell id="aVotK5YqHczam_q-kqmK-46" value="" style="endArrow=none;html=1;rounded=0;fontSize=9;fontColor=#FF0000;" parent="aVotK5YqHczam_q-kqmK-39" edge="1">
          <mxGeometry width="50" height="50" relative="1" as="geometry">
            <mxPoint x="306" y="48" as="sourcePoint" />
            <mxPoint x="359" as="targetPoint" />
          </mxGeometry>
        </mxCell>
        <mxCell id="aVotK5YqHczam_q-kqmK-47" value="" style="endArrow=none;html=1;rounded=0;fontSize=9;fontColor=#FF0000;" parent="aVotK5YqHczam_q-kqmK-39" edge="1">
          <mxGeometry width="50" height="50" relative="1" as="geometry">
            <mxPoint x="408" y="48" as="sourcePoint" />
            <mxPoint x="359" as="targetPoint" />
          </mxGeometry>
        </mxCell>
        <mxCell id="aVotK5YqHczam_q-kqmK-48" value="" style="endArrow=none;html=1;rounded=0;fontSize=9;fontColor=#FF0000;" parent="aVotK5YqHczam_q-kqmK-39" edge="1">
          <mxGeometry width="50" height="50" relative="1" as="geometry">
            <mxPoint x="408" y="48" as="sourcePoint" />
            <mxPoint x="462" as="targetPoint" />
          </mxGeometry>
        </mxCell>
        <mxCell id="aVotK5YqHczam_q-kqmK-49" value="" style="endArrow=none;html=1;rounded=0;fontSize=9;fontColor=#FF0000;" parent="aVotK5YqHczam_q-kqmK-39" edge="1">
          <mxGeometry width="50" height="50" relative="1" as="geometry">
            <mxPoint x="512" y="48" as="sourcePoint" />
            <mxPoint x="462" as="targetPoint" />
          </mxGeometry>
        </mxCell>
        <mxCell id="aVotK5YqHczam_q-kqmK-50" value="" style="group" parent="22vkG-h5v2N9dKBLQ-ZE-138" vertex="1" connectable="0">
          <mxGeometry x="256" y="382" width="512" height="48" as="geometry" />
        </mxCell>
        <mxCell id="aVotK5YqHczam_q-kqmK-51" value="" style="endArrow=none;html=1;rounded=0;fontSize=9;fontColor=#FF0000;" parent="aVotK5YqHczam_q-kqmK-50" edge="1">
          <mxGeometry width="50" height="50" relative="1" as="geometry">
            <mxPoint y="48" as="sourcePoint" />
            <mxPoint x="53" as="targetPoint" />
          </mxGeometry>
        </mxCell>
        <mxCell id="aVotK5YqHczam_q-kqmK-52" value="" style="endArrow=none;html=1;rounded=0;fontSize=9;fontColor=#FF0000;" parent="aVotK5YqHczam_q-kqmK-50" edge="1">
          <mxGeometry width="50" height="50" relative="1" as="geometry">
            <mxPoint x="102" y="48" as="sourcePoint" />
            <mxPoint x="53" as="targetPoint" />
          </mxGeometry>
        </mxCell>
        <mxCell id="aVotK5YqHczam_q-kqmK-53" value="" style="endArrow=none;html=1;rounded=0;fontSize=9;fontColor=#FF0000;" parent="aVotK5YqHczam_q-kqmK-50" edge="1">
          <mxGeometry width="50" height="50" relative="1" as="geometry">
            <mxPoint x="102" y="48" as="sourcePoint" />
            <mxPoint x="155" as="targetPoint" />
          </mxGeometry>
        </mxCell>
        <mxCell id="aVotK5YqHczam_q-kqmK-54" value="" style="endArrow=none;html=1;rounded=0;fontSize=9;fontColor=#FF0000;" parent="aVotK5YqHczam_q-kqmK-50" edge="1">
          <mxGeometry width="50" height="50" relative="1" as="geometry">
            <mxPoint x="204" y="48" as="sourcePoint" />
            <mxPoint x="155" as="targetPoint" />
          </mxGeometry>
        </mxCell>
        <mxCell id="aVotK5YqHczam_q-kqmK-55" value="" style="endArrow=none;html=1;rounded=0;fontSize=9;fontColor=#FF0000;" parent="aVotK5YqHczam_q-kqmK-50" edge="1">
          <mxGeometry width="50" height="50" relative="1" as="geometry">
            <mxPoint x="204" y="48" as="sourcePoint" />
            <mxPoint x="257" as="targetPoint" />
          </mxGeometry>
        </mxCell>
        <mxCell id="aVotK5YqHczam_q-kqmK-56" value="" style="endArrow=none;html=1;rounded=0;fontSize=9;fontColor=#FF0000;" parent="aVotK5YqHczam_q-kqmK-50" edge="1">
          <mxGeometry width="50" height="50" relative="1" as="geometry">
            <mxPoint x="306" y="48" as="sourcePoint" />
            <mxPoint x="257" as="targetPoint" />
          </mxGeometry>
        </mxCell>
        <mxCell id="aVotK5YqHczam_q-kqmK-57" value="" style="endArrow=none;html=1;rounded=0;fontSize=9;fontColor=#FF0000;" parent="aVotK5YqHczam_q-kqmK-50" edge="1">
          <mxGeometry width="50" height="50" relative="1" as="geometry">
            <mxPoint x="306" y="48" as="sourcePoint" />
            <mxPoint x="359" as="targetPoint" />
          </mxGeometry>
        </mxCell>
        <mxCell id="aVotK5YqHczam_q-kqmK-58" value="" style="endArrow=none;html=1;rounded=0;fontSize=9;fontColor=#FF0000;" parent="aVotK5YqHczam_q-kqmK-50" edge="1">
          <mxGeometry width="50" height="50" relative="1" as="geometry">
            <mxPoint x="408" y="48" as="sourcePoint" />
            <mxPoint x="359" as="targetPoint" />
          </mxGeometry>
        </mxCell>
        <mxCell id="aVotK5YqHczam_q-kqmK-59" value="" style="endArrow=none;html=1;rounded=0;fontSize=9;fontColor=#FF0000;" parent="aVotK5YqHczam_q-kqmK-50" edge="1">
          <mxGeometry width="50" height="50" relative="1" as="geometry">
            <mxPoint x="408" y="48" as="sourcePoint" />
            <mxPoint x="462" as="targetPoint" />
          </mxGeometry>
        </mxCell>
        <mxCell id="aVotK5YqHczam_q-kqmK-60" value="" style="endArrow=none;html=1;rounded=0;fontSize=9;fontColor=#FF0000;" parent="aVotK5YqHczam_q-kqmK-50" edge="1">
          <mxGeometry width="50" height="50" relative="1" as="geometry">
            <mxPoint x="512" y="48" as="sourcePoint" />
            <mxPoint x="462" as="targetPoint" />
          </mxGeometry>
        </mxCell>
        <mxCell id="aVotK5YqHczam_q-kqmK-65" value="" style="group" parent="22vkG-h5v2N9dKBLQ-ZE-138" vertex="1" connectable="0">
          <mxGeometry x="256" y="401" width="512" height="48" as="geometry" />
        </mxCell>
        <mxCell id="aVotK5YqHczam_q-kqmK-66" value="" style="endArrow=none;html=1;rounded=0;fontSize=9;fontColor=#FF0000;" parent="aVotK5YqHczam_q-kqmK-65" edge="1">
          <mxGeometry width="50" height="50" relative="1" as="geometry">
            <mxPoint y="48" as="sourcePoint" />
            <mxPoint x="53" as="targetPoint" />
          </mxGeometry>
        </mxCell>
        <mxCell id="aVotK5YqHczam_q-kqmK-67" value="" style="endArrow=none;html=1;rounded=0;fontSize=9;fontColor=#FF0000;" parent="aVotK5YqHczam_q-kqmK-65" edge="1">
          <mxGeometry width="50" height="50" relative="1" as="geometry">
            <mxPoint x="102" y="48" as="sourcePoint" />
            <mxPoint x="53" as="targetPoint" />
          </mxGeometry>
        </mxCell>
        <mxCell id="aVotK5YqHczam_q-kqmK-68" value="" style="endArrow=none;html=1;rounded=0;fontSize=9;fontColor=#FF0000;" parent="aVotK5YqHczam_q-kqmK-65" edge="1">
          <mxGeometry width="50" height="50" relative="1" as="geometry">
            <mxPoint x="102" y="48" as="sourcePoint" />
            <mxPoint x="155" as="targetPoint" />
          </mxGeometry>
        </mxCell>
        <mxCell id="aVotK5YqHczam_q-kqmK-69" value="" style="endArrow=none;html=1;rounded=0;fontSize=9;fontColor=#FF0000;" parent="aVotK5YqHczam_q-kqmK-65" edge="1">
          <mxGeometry width="50" height="50" relative="1" as="geometry">
            <mxPoint x="204" y="48" as="sourcePoint" />
            <mxPoint x="155" as="targetPoint" />
          </mxGeometry>
        </mxCell>
        <mxCell id="aVotK5YqHczam_q-kqmK-70" value="" style="endArrow=none;html=1;rounded=0;fontSize=9;fontColor=#FF0000;" parent="aVotK5YqHczam_q-kqmK-65" edge="1">
          <mxGeometry width="50" height="50" relative="1" as="geometry">
            <mxPoint x="204" y="48" as="sourcePoint" />
            <mxPoint x="257" as="targetPoint" />
          </mxGeometry>
        </mxCell>
        <mxCell id="aVotK5YqHczam_q-kqmK-71" value="" style="endArrow=none;html=1;rounded=0;fontSize=9;fontColor=#FF0000;" parent="aVotK5YqHczam_q-kqmK-65" edge="1">
          <mxGeometry width="50" height="50" relative="1" as="geometry">
            <mxPoint x="306" y="48" as="sourcePoint" />
            <mxPoint x="257" as="targetPoint" />
          </mxGeometry>
        </mxCell>
        <mxCell id="aVotK5YqHczam_q-kqmK-72" value="" style="endArrow=none;html=1;rounded=0;fontSize=9;fontColor=#FF0000;" parent="aVotK5YqHczam_q-kqmK-65" edge="1">
          <mxGeometry width="50" height="50" relative="1" as="geometry">
            <mxPoint x="306" y="48" as="sourcePoint" />
            <mxPoint x="359" as="targetPoint" />
          </mxGeometry>
        </mxCell>
        <mxCell id="aVotK5YqHczam_q-kqmK-73" value="" style="endArrow=none;html=1;rounded=0;fontSize=9;fontColor=#FF0000;" parent="aVotK5YqHczam_q-kqmK-65" edge="1">
          <mxGeometry width="50" height="50" relative="1" as="geometry">
            <mxPoint x="408" y="48" as="sourcePoint" />
            <mxPoint x="359" as="targetPoint" />
          </mxGeometry>
        </mxCell>
        <mxCell id="aVotK5YqHczam_q-kqmK-74" value="" style="endArrow=none;html=1;rounded=0;fontSize=9;fontColor=#FF0000;" parent="aVotK5YqHczam_q-kqmK-65" edge="1">
          <mxGeometry width="50" height="50" relative="1" as="geometry">
            <mxPoint x="408" y="48" as="sourcePoint" />
            <mxPoint x="462" as="targetPoint" />
          </mxGeometry>
        </mxCell>
        <mxCell id="aVotK5YqHczam_q-kqmK-75" value="" style="endArrow=none;html=1;rounded=0;fontSize=9;fontColor=#FF0000;" parent="aVotK5YqHczam_q-kqmK-65" edge="1">
          <mxGeometry width="50" height="50" relative="1" as="geometry">
            <mxPoint x="512" y="48" as="sourcePoint" />
            <mxPoint x="462" as="targetPoint" />
          </mxGeometry>
        </mxCell>
        <mxCell id="22vkG-h5v2N9dKBLQ-ZE-135" value="Label" style="" parent="22vkG-h5v2N9dKBLQ-ZE-0" />
        <object label="%LabelLines%&amp;nbsp; &amp;nbsp; &amp;nbsp; &amp;nbsp; &amp;nbsp; &amp;nbsp;%LabelIndex%" placeholders="1" LabelLines="1" LabelIndex="A" id="o4HFOGGzcHJtU2ZKQ88_-0">
          <mxCell style="rounded=0;whiteSpace=wrap;html=1;fillColor=none;strokeColor=#FF0000;fontColor=#FF0000;fontSize=10;align=left;" vertex="1" parent="22vkG-h5v2N9dKBLQ-ZE-135">
            <mxGeometry x="472" y="528" width="80" height="16" as="geometry" />
          </mxCell>
        </object>
        <mxCell id="22vkG-h5v2N9dKBLQ-ZE-124" value="Connection" style="" parent="22vkG-h5v2N9dKBLQ-ZE-0" />
        <object label="Connection" PipingConnector="Y" LabelConnector="N" SignalConnector="N" Direction="0" id="aVotK5YqHczam_q-kqmK-62">
          <mxCell style="vsdxID=1407;fillColor=none;gradientColor=none;shape=stencil(rVFbDsIgEDwNnyQU4glqvcfGblsilmZBS28vZGMsxg9j/JvZmX1kR5g2TLCg0CpE8hdcbR8nYY5CaztPSDZmJEwnTDt4wpH8be6ZL1CcBV39vUxI3KdKh1YbswPTEzuBzlmiVGmKau9zUKM+jlJJQrJBko8QrZ+rrQ5oRJnXyMHBWElhRVx25ebnw/5zVvPFWRm83jxY5zilvf4eSy5xpKZ7AA==);strokeColor=#00ff00;strokeWidth=1;points=[[0.5,0.5,0,0,0]];labelBackgroundColor=none;rounded=0;html=1;whiteSpace=wrap;aspect=fixed;noLabel=1;snapToPoint=1;container=0;fontSize=16;fontColor=#FF0000;" parent="22vkG-h5v2N9dKBLQ-ZE-124" vertex="1">
            <mxGeometry x="762" y="378" width="12" height="12" as="geometry" />
          </mxCell>
        </object>
        <object label="Connection" PipingConnector="Y" LabelConnector="N" SignalConnector="N" Direction="180" id="aVotK5YqHczam_q-kqmK-76">
          <mxCell style="vsdxID=1407;fillColor=none;gradientColor=none;shape=stencil(rVFbDsIgEDwNnyQU4glqvcfGblsilmZBS28vZGMsxg9j/JvZmX1kR5g2TLCg0CpE8hdcbR8nYY5CaztPSDZmJEwnTDt4wpH8be6ZL1CcBV39vUxI3KdKh1YbswPTEzuBzlmiVGmKau9zUKM+jlJJQrJBko8QrZ+rrQ5oRJnXyMHBWElhRVx25ebnw/5zVvPFWRm83jxY5zilvf4eSy5xpKZ7AA==);strokeColor=#00ff00;strokeWidth=1;points=[[0.5,0.5,0,0,0]];labelBackgroundColor=none;rounded=0;html=1;whiteSpace=wrap;aspect=fixed;noLabel=1;snapToPoint=1;container=0;fontSize=16;fontColor=#FF0000;" parent="22vkG-h5v2N9dKBLQ-ZE-124" vertex="1">
            <mxGeometry x="250" y="378" width="12" height="12" as="geometry" />
          </mxCell>
        </object>
        <mxCell id="22vkG-h5v2N9dKBLQ-ZE-136" value="Origo" style="" parent="22vkG-h5v2N9dKBLQ-ZE-0" />
        <object label="origo" id="aVotK5YqHczam_q-kqmK-61">
          <mxCell style="vsdxID=1407;fillColor=none;gradientColor=none;shape=stencil(rVFbDsIgEDwNnyQU4glqvcfGblsilmZBS28vZGMsxg9j/JvZmX1kR5g2TLCg0CpE8hdcbR8nYY5CaztPSDZmJEwnTDt4wpH8be6ZL1CcBV39vUxI3KdKh1YbswPTEzuBzlmiVGmKau9zUKM+jlJJQrJBko8QrZ+rrQ5oRJnXyMHBWElhRVx25ebnw/5zVvPFWRm83jxY5zilvf4eSy5xpKZ7AA==);strokeColor=#ff0000;strokeWidth=1;points=[[0.5,0.5,0,0,0]];labelBackgroundColor=none;rounded=0;html=1;whiteSpace=wrap;aspect=fixed;noLabel=1;snapToPoint=1;fontSize=9;fontColor=#FF0000;" parent="22vkG-h5v2N9dKBLQ-ZE-136" vertex="1">
            <mxGeometry x="508" y="380" width="8" height="8" as="geometry" />
          </mxCell>
        </object>
      </root>
    </mxGraphModel>
  </diagram>
</mxfile>
